<svg xmlns="http://www.w3.org/2000/svg" width="256" height="256" viewBox="0 0 256 256" preserveAspectRatio="none">
  <defs>
    <filter id="grain" x="-20%" y="-20%" width="140%" height="140%">
      <feTurbulence type="fractalNoise" baseFrequency="0.8" numOctaves="3" seed="19" stitchTiles="stitch"/>
      <feColorMatrix type="matrix" values="0 0 0 0 0.57  0 0 0 0 0.64  0 0 0 0 0.75  0 0 0 0.2 0"/>
    </filter>
    <pattern id="tex" width="256" height="256" patternUnits="userSpaceOnUse">
      <rect width="256" height="256" fill="#eaf1f8"/>
      <rect width="256" height="256" filter="url(#grain)"/>
      <g stroke="#aebfd2" stroke-opacity="0.18" stroke-width="1" fill="none">
        <path d="M-24 34C34 14 90 54 148 34C198 18 238 20 286 42"/>
        <path d="M-30 82C26 62 92 98 156 80C206 66 238 68 284 88"/>
        <path d="M-28 132C30 114 96 148 160 130C212 114 244 118 286 138"/>
        <path d="M-24 184C36 164 98 198 164 182C216 166 246 168 286 188"/>
        <path d="M-18 232C40 214 108 248 170 228C222 214 248 214 286 234"/>
      </g>
      <g fill="#ffffff" fill-opacity="0.15">
        <circle cx="18" cy="20" r="1.1"/>
        <circle cx="70" cy="56" r="0.9"/>
        <circle cx="114" cy="26" r="1.0"/>
        <circle cx="154" cy="92" r="1.2"/>
        <circle cx="206" cy="46" r="0.9"/>
        <circle cx="236" cy="108" r="1.0"/>
        <circle cx="34" cy="170" r="1.0"/>
        <circle cx="90" cy="142" r="0.9"/>
        <circle cx="188" cy="176" r="1.0"/>
        <circle cx="228" cy="224" r="1.1"/>
      </g>
    </pattern>
  </defs>
  <rect width="256" height="256" fill="url(#tex)"/>
</svg>
