<svg version="1.1" id="Layer_1" xmlns="http://www.w3.org/2000/svg" xmlns:xlink="http://www.w3.org/1999/xlink" x="0px" y="0px"
	 width="100%" viewBox="0 0 2048 2048" enable-background="new 0 0 2048 2048" xml:space="preserve">
<path fill="#FFFFFF" opacity="1.000000" stroke="none" 
	d="
M1100.000000,2049.000000 
	C733.333313,2049.000000 367.166656,2049.000000 1.000000,2049.000000 
	C1.000000,1366.333374 1.000000,683.666687 1.000000,1.000000 
	C683.666687,1.000000 1366.333374,1.000000 2049.000000,1.000000 
	C2049.000000,683.666687 2049.000000,1366.333374 2049.000000,2049.000000 
	C1732.833374,2049.000000 1416.666626,2049.000000 1100.000000,2049.000000 
M575.958313,1400.117554 
	C576.292114,1406.080933 576.479858,1412.056885 576.988953,1418.005371 
	C578.203003,1432.190430 581.666992,1445.925049 587.541626,1458.808228 
	C596.577881,1478.624878 606.191101,1498.186401 615.910095,1517.681396 
	C627.120728,1540.168457 642.009338,1560.172729 659.689026,1577.889893 
	C670.929565,1589.154175 683.291321,1599.317749 695.354431,1609.738525 
	C711.854858,1623.992920 728.898071,1637.471924 748.994995,1646.562012 
	C759.884583,1651.487671 770.485291,1657.048584 781.333069,1662.070679 
	C795.039551,1668.416138 808.363708,1676.273315 822.740051,1680.347656 
	C855.914368,1689.749268 889.470642,1697.973999 923.182129,1705.236206 
	C939.762024,1708.807983 956.999329,1710.167725 973.998108,1710.723389 
	C991.551636,1711.297363 1009.196533,1710.003418 1026.764526,1708.924316 
	C1041.809326,1708.000122 1056.984009,1707.241211 1071.775146,1704.589844 
	C1094.600098,1700.498291 1117.453491,1695.983765 1139.162109,1687.374634 
	C1157.220581,1680.213135 1175.606689,1673.672607 1193.036987,1665.190918 
	C1210.787964,1656.553467 1227.377075,1645.562378 1244.785156,1636.177124 
	C1268.476196,1623.405029 1287.678711,1605.708496 1304.533691,1584.948730 
	C1319.070068,1567.044800 1333.930054,1549.358643 1349.467896,1532.325073 
	C1367.377563,1512.691162 1384.528442,1492.639648 1394.106445,1467.465332 
	C1398.452271,1456.042603 1401.432129,1444.100342 1405.869019,1432.187378 
	C1413.461304,1431.391602 1421.093140,1430.863159 1428.638062,1429.747070 
	C1447.020142,1427.027954 1465.369995,1424.086060 1483.718262,1421.143677 
	C1514.017334,1416.285034 1544.575928,1412.610962 1574.111938,1403.947510 
	C1595.618896,1397.639038 1617.014648,1390.843384 1638.123169,1383.320068 
	C1653.923096,1377.688843 1669.186523,1370.552246 1684.688843,1364.085938 
	C1699.116577,1358.067871 1713.771973,1352.533447 1727.902222,1345.883545 
	C1739.929321,1340.223267 1751.205322,1332.990479 1763.071655,1326.960938 
	C1789.244995,1313.661377 1813.535400,1297.936646 1832.987915,1275.506104 
	C1843.405518,1263.493652 1852.676147,1250.767090 1858.522705,1235.885132 
	C1862.107056,1226.761719 1864.785889,1217.276489 1868.498291,1208.210693 
	C1874.900513,1192.576782 1874.873291,1177.533813 1865.934937,1162.860229 
	C1865.165283,1161.596802 1864.565063,1160.168213 1864.189697,1158.736694 
	C1862.167358,1151.026855 1859.971313,1143.348877 1858.328613,1135.555786 
	C1851.516846,1103.242676 1844.163940,1071.019653 1838.411011,1038.515381 
	C1833.845825,1012.721619 1831.981079,986.457581 1827.705811,960.602661 
	C1823.242432,933.609680 1818.167603,906.656494 1811.822388,880.052612 
	C1805.042969,851.627930 1796.739868,823.552734 1788.605713,795.468750 
	C1778.388306,760.191711 1767.365601,725.146973 1757.242920,689.843628 
	C1745.866821,650.169373 1732.726318,611.096436 1718.082153,572.541077 
	C1703.731934,534.759644 1688.563477,497.289734 1674.077759,459.558838 
	C1662.818237,430.231689 1648.416626,402.587921 1631.485352,376.170685 
	C1616.857544,353.347626 1602.769531,330.177216 1588.036865,307.423309 
	C1576.654053,289.843292 1565.148926,272.298035 1552.747925,255.436325 
	C1543.116455,242.340393 1531.830566,230.474258 1521.617310,217.789886 
	C1507.680298,200.480988 1492.409668,184.450378 1474.939819,170.783142 
	C1444.558472,147.014938 1414.256714,123.014320 1380.042358,104.779022 
	C1359.624878,93.897041 1339.127197,83.080315 1318.136108,73.380028 
	C1288.737183,59.794308 1257.645874,50.823429 1226.032349,44.263031 
	C1194.211060,37.659515 1162.194824,31.661171 1130.010376,27.247627 
	C1104.564819,23.758213 1078.747314,21.730743 1053.072388,21.491598 
	C1023.524475,21.216377 993.921875,23.155956 964.399719,25.027323 
	C944.541382,26.286116 924.587646,28.006142 905.025818,31.484209 
	C880.058960,35.923283 855.280212,41.706856 830.712463,48.043209 
	C782.638611,60.442066 737.806152,80.510231 696.360291,107.871574 
	C672.070740,123.906853 648.309753,140.717941 626.407715,159.982849 
	C609.802856,174.588394 592.556335,188.554077 576.870789,204.091995 
	C557.970825,222.814072 540.288574,242.778122 522.337708,262.440552 
	C512.591858,273.115692 503.032349,284.001160 494.016693,295.293030 
	C481.574585,310.876526 469.626404,326.859039 457.646973,342.806091 
	C442.272308,363.272858 426.071747,383.211761 412.006073,404.550751 
	C379.303894,454.163116 347.981110,504.636261 323.368622,558.959412 
	C314.375946,578.807556 304.107300,598.073425 294.797180,617.782776 
	C282.005737,644.862183 270.183807,672.335693 260.413361,700.707886 
	C250.503265,729.485535 239.760193,757.977844 229.259583,786.550232 
	C218.922928,814.676331 210.054199,843.250549 203.416107,872.467346 
	C198.782700,892.860657 195.167664,913.487305 190.441528,933.857422 
	C180.872757,975.099731 170.627197,1016.185242 161.109299,1057.438965 
	C154.842529,1084.601196 149.219696,1111.900879 146.804611,1139.776123 
	C144.998016,1160.628174 149.260956,1179.932129 161.201630,1197.011353 
	C176.262894,1218.553833 194.141998,1237.971313 215.644928,1252.893677 
	C239.921722,1269.740967 265.228699,1285.400391 291.305786,1299.289062 
	C332.490234,1321.223755 376.304993,1337.405029 420.296631,1352.779663 
	C453.252563,1364.297119 486.490570,1375.065796 519.879150,1385.263794 
	C538.271362,1390.881470 557.233643,1394.633057 575.958313,1400.117554 
M1704.787231,1631.789917 
	C1707.396973,1632.871094 1710.029541,1633.900635 1712.612549,1635.042114 
	C1725.539185,1640.754761 1738.855591,1645.742188 1751.290161,1652.379639 
	C1780.637451,1668.045044 1809.663330,1684.293457 1840.943237,1695.957397 
	C1849.760254,1699.245239 1858.795654,1701.906372 1868.171021,1699.329712 
	C1887.532104,1694.008789 1895.520386,1671.638306 1884.114624,1654.791260 
	C1881.563354,1651.022827 1877.917603,1647.995239 1875.403687,1645.300049 
	C1875.771484,1639.056274 1876.973267,1632.926392 1876.310181,1627.005493 
	C1874.831299,1613.801880 1864.984009,1606.619873 1854.488403,1600.959595 
	C1838.416260,1592.291992 1821.867188,1584.508911 1805.520996,1576.349487 
	C1793.025146,1570.112305 1780.477539,1563.976440 1768.044556,1557.616333 
	C1735.202271,1540.816284 1703.034668,1522.525391 1669.421265,1507.453369 
	C1635.979614,1492.458374 1601.198853,1480.408203 1566.823853,1467.551880 
	C1547.049927,1460.156372 1526.875977,1453.836792 1506.960571,1446.810669 
	C1496.359009,1443.070312 1486.293091,1443.196777 1477.387939,1450.548584 
	C1473.884033,1453.441528 1471.331665,1457.514771 1468.461548,1461.141846 
	C1460.012085,1471.820068 1457.183228,1483.999268 1461.603516,1496.772705 
	C1466.720337,1511.559082 1478.304932,1521.678467 1490.977295,1529.691772 
	C1513.055908,1543.652466 1536.824341,1554.440063 1561.156006,1564.006836 
	C1576.151001,1569.902710 1590.990356,1576.242920 1605.639893,1582.951050 
	C1614.696167,1587.098145 1623.114868,1592.618408 1632.080933,1596.985962 
	C1656.009521,1608.641846 1680.079346,1620.007690 1704.787231,1631.789917 
M192.024033,1674.509033 
	C196.735748,1671.119629 201.492447,1667.790894 206.151413,1664.330566 
	C226.534485,1649.191284 246.832336,1633.936646 267.274475,1618.877930 
	C280.638672,1609.032959 294.279175,1599.563232 307.649170,1589.726074 
	C327.033020,1575.464233 346.222656,1560.938232 365.613373,1546.686035 
	C378.719635,1537.052856 392.019104,1527.682007 405.250732,1518.219849 
	C421.316254,1506.731201 437.020355,1494.681885 453.577515,1483.950073 
	C473.054199,1471.326050 491.479248,1457.570068 507.565582,1440.821045 
	C515.345886,1432.720215 520.289307,1422.769287 519.635437,1411.656128 
	C518.654724,1394.991211 505.645782,1382.570679 489.144562,1384.195801 
	C481.302887,1384.967896 473.735443,1386.788208 466.232880,1383.074463 
	C465.829041,1382.874512 465.245544,1383.036255 464.745697,1383.031738 
	C453.887939,1382.934082 444.843750,1387.978638 436.156677,1393.575439 
	C426.111206,1400.047363 416.518829,1407.221680 406.483276,1413.709839 
	C390.314178,1424.163574 373.531982,1433.714233 357.742371,1444.700439 
	C323.665833,1468.410400 289.956299,1492.652710 256.303467,1516.963501 
	C243.262970,1526.384155 230.645782,1536.409302 218.085907,1546.471313 
	C206.172668,1556.015381 194.606796,1565.992188 182.850708,1575.733521 
	C171.221848,1585.369507 159.445129,1594.829590 147.921280,1604.588745 
	C137.531006,1613.387817 127.345833,1622.431763 117.158806,1631.467651 
	C102.409058,1644.550293 101.186371,1666.151733 117.015823,1678.311890 
	C123.534523,1683.319580 130.609344,1687.950684 138.088516,1691.273804 
	C147.610855,1695.504639 158.059372,1696.226807 167.499420,1690.997070 
	C175.881302,1686.353516 183.529449,1680.385498 192.024033,1674.509033 
M1382.974976,1714.751709 
	C1383.704712,1720.637207 1383.555420,1726.806885 1385.346924,1732.349243 
	C1389.094604,1743.944458 1399.136963,1750.435669 1408.405029,1757.029419 
	C1424.369141,1768.386719 1440.557251,1779.477295 1457.138184,1789.905762 
	C1473.026855,1799.899048 1489.534180,1808.909058 1505.770630,1818.349487 
	C1520.286987,1826.789917 1534.339233,1836.201660 1549.438477,1843.423828 
	C1568.896606,1852.730835 1589.168091,1860.345337 1609.138916,1868.568604 
	C1621.472778,1873.647217 1636.224243,1869.701782 1643.656372,1859.567261 
	C1651.805542,1848.454590 1651.568115,1834.453613 1643.170288,1823.562622 
	C1641.284424,1821.116943 1638.381836,1818.432739 1638.308350,1815.792725 
	C1638.022583,1805.523926 1632.151733,1799.214966 1624.454346,1794.021606 
	C1617.153687,1789.095947 1609.414673,1784.805542 1602.233154,1779.720703 
	C1583.167114,1766.220825 1563.142334,1754.505249 1541.642944,1745.282349 
	C1529.736816,1740.174927 1517.860107,1734.933716 1506.302612,1729.094849 
	C1489.076782,1720.392212 1472.353027,1710.680664 1455.012085,1702.226562 
	C1444.014771,1696.864990 1432.509277,1692.289429 1420.833374,1688.632935 
	C1400.536987,1682.276367 1384.193115,1697.488159 1382.974976,1714.751709 
M561.983643,1857.411133 
	C559.017883,1865.691162 555.688232,1873.862915 553.184265,1882.280396 
	C550.445435,1891.486572 548.132690,1900.852417 546.249634,1910.271729 
	C544.038086,1921.333984 548.046997,1930.966553 553.580994,1940.469482 
	C559.700500,1950.977783 567.643066,1957.204956 580.268372,1957.164673 
	C592.899902,1957.124268 601.418335,1950.971191 606.776367,1940.228149 
	C610.249756,1933.264160 613.065430,1925.921753 615.594299,1918.549316 
	C618.971008,1908.705322 624.234192,1900.024048 629.857849,1891.343384 
	C638.155518,1878.535400 646.922363,1865.763916 653.096313,1851.910278 
	C662.196960,1831.489258 669.822998,1810.339600 676.884644,1789.103638 
	C682.577820,1771.983032 686.845093,1754.357788 691.100342,1736.800049 
	C694.012329,1724.784912 688.261475,1713.076050 677.337524,1706.222900 
	C667.922180,1700.316162 653.718567,1700.666382 645.260620,1708.579712 
	C638.579041,1714.830811 632.601074,1722.198730 627.750427,1729.969604 
	C615.966736,1748.847168 605.406921,1768.488525 593.637451,1787.375732 
	C580.079529,1809.132935 570.540833,1832.593140 561.983643,1857.411133 
M990.985352,1964.481567 
	C990.960327,1967.645264 991.270752,1970.854248 990.850525,1973.964600 
	C989.278381,1985.599976 989.713684,1997.137573 991.994690,2008.622925 
	C994.172913,2019.590942 999.596375,2028.091431 1010.576721,2031.999756 
	C1027.355713,2037.972168 1044.362183,2029.958252 1049.776123,2012.357666 
	C1052.756714,2002.667847 1054.223267,1992.273804 1054.737793,1982.114502 
	C1055.737915,1962.364990 1055.755371,1942.557983 1055.871826,1922.773071 
	C1056.045288,1893.300781 1055.977417,1863.826904 1055.932739,1834.353760 
	C1055.928223,1831.393921 1055.398682,1828.432617 1055.076416,1825.475830 
	C1053.485474,1810.881714 1039.367310,1801.663208 1028.794189,1800.924194 
	C1013.267090,1799.838867 1000.167358,1810.821533 998.063049,1824.370239 
	C997.000916,1831.208862 997.196655,1838.258057 997.024963,1845.216919 
	C996.578064,1863.330566 996.695374,1881.470947 995.744263,1899.556274 
	C994.622070,1920.892090 992.613892,1942.181519 990.985352,1964.481567 
z"/>
<path fill="#8CC6EC" opacity="1.000000" stroke="none" 
	d="
M575.938904,1399.225830 
	C557.233643,1394.633057 538.271362,1390.881470 519.879150,1385.263794 
	C486.490570,1375.065796 453.252563,1364.297119 420.296631,1352.779663 
	C376.304993,1337.405029 332.490234,1321.223755 291.305786,1299.289062 
	C265.228699,1285.400391 239.921722,1269.740967 215.644928,1252.893677 
	C194.141998,1237.971313 176.262894,1218.553833 161.201630,1197.011353 
	C149.260956,1179.932129 144.998016,1160.628174 146.804611,1139.776123 
	C149.219696,1111.900879 154.842529,1084.601196 161.109299,1057.438965 
	C170.627197,1016.185242 180.872757,975.099731 190.441528,933.857422 
	C195.167664,913.487305 198.782700,892.860657 203.416107,872.467346 
	C210.054199,843.250549 218.922928,814.676331 229.259583,786.550232 
	C239.760193,757.977844 250.503265,729.485535 260.413361,700.707886 
	C270.183807,672.335693 282.005737,644.862183 294.797180,617.782776 
	C304.107300,598.073425 314.375946,578.807556 323.368622,558.959412 
	C347.981110,504.636261 379.303894,454.163116 412.006073,404.550751 
	C426.071747,383.211761 442.272308,363.272858 457.646973,342.806091 
	C469.626404,326.859039 481.574585,310.876526 494.016693,295.293030 
	C503.032349,284.001160 512.591858,273.115692 522.337708,262.440552 
	C540.288574,242.778122 557.970825,222.814072 576.870789,204.091995 
	C592.556335,188.554077 609.802856,174.588394 626.407715,159.982849 
	C648.309753,140.717941 672.070740,123.906853 696.360291,107.871574 
	C737.806152,80.510231 782.638611,60.442066 830.712463,48.043209 
	C855.280212,41.706856 880.058960,35.923283 905.025818,31.484209 
	C924.587646,28.006142 944.541382,26.286116 964.399719,25.027323 
	C993.921875,23.155956 1023.524475,21.216377 1053.072388,21.491598 
	C1078.747314,21.730743 1104.564819,23.758213 1130.010376,27.247627 
	C1162.194824,31.661171 1194.211060,37.659515 1226.032349,44.263031 
	C1257.645874,50.823429 1288.737183,59.794308 1318.136108,73.380028 
	C1339.127197,83.080315 1359.624878,93.897041 1380.042358,104.779022 
	C1414.256714,123.014320 1444.558472,147.014938 1474.939819,170.783142 
	C1492.409668,184.450378 1507.680298,200.480988 1521.617310,217.789886 
	C1531.830566,230.474258 1543.116455,242.340393 1552.747925,255.436325 
	C1565.148926,272.298035 1576.654053,289.843292 1588.036865,307.423309 
	C1602.769531,330.177216 1616.857544,353.347626 1631.485352,376.170685 
	C1648.416626,402.587921 1662.818237,430.231689 1674.077759,459.558838 
	C1688.563477,497.289734 1703.731934,534.759644 1718.082153,572.541077 
	C1732.726318,611.096436 1745.866821,650.169373 1757.242920,689.843628 
	C1767.365601,725.146973 1778.388306,760.191711 1788.605713,795.468750 
	C1796.739868,823.552734 1805.042969,851.627930 1811.822388,880.052612 
	C1818.167603,906.656494 1823.242432,933.609680 1827.705811,960.602661 
	C1831.981079,986.457581 1833.845825,1012.721619 1838.411011,1038.515381 
	C1844.163940,1071.019653 1851.516846,1103.242676 1858.328613,1135.555786 
	C1859.971313,1143.348877 1862.167358,1151.026855 1864.189697,1158.736694 
	C1864.565063,1160.168213 1865.165283,1161.596802 1865.934937,1162.860229 
	C1874.873291,1177.533813 1874.900513,1192.576782 1868.498291,1208.210693 
	C1864.785889,1217.276489 1862.107056,1226.761719 1858.522705,1235.885132 
	C1852.676147,1250.767090 1843.405518,1263.493652 1832.987915,1275.506104 
	C1813.535400,1297.936646 1789.244995,1313.661377 1763.071655,1326.960938 
	C1751.205322,1332.990479 1739.929321,1340.223267 1727.902222,1345.883545 
	C1713.771973,1352.533447 1699.116577,1358.067871 1684.688843,1364.085938 
	C1669.186523,1370.552246 1653.923096,1377.688843 1638.123169,1383.320068 
	C1617.014648,1390.843384 1595.618896,1397.639038 1574.111938,1403.947510 
	C1544.575928,1412.610962 1514.017334,1416.285034 1483.718262,1421.143677 
	C1465.369995,1424.086060 1447.020142,1427.027954 1428.638062,1429.747070 
	C1421.093140,1430.863159 1413.461304,1431.391602 1405.043213,1432.229370 
	C1383.258667,1434.477051 1362.322510,1436.933960 1341.334961,1438.819580 
	C1319.344482,1440.795654 1297.323364,1442.547363 1275.281738,1443.803711 
	C1251.054077,1445.184570 1226.794312,1446.458130 1202.536377,1446.744263 
	C1172.245605,1447.101807 1141.939453,1446.586060 1111.645264,1446.109009 
	C1083.033936,1445.658813 1054.429810,1444.765869 1025.822266,1444.076050 
	C1009.354980,1443.678833 992.885803,1443.352661 976.420532,1442.885010 
	C968.779480,1442.668213 961.136841,1442.322144 953.510376,1441.806030 
	C930.818359,1440.271240 908.129395,1438.684326 885.448364,1436.995117 
	C872.702332,1436.045776 859.972046,1434.880127 847.238708,1433.765747 
	C829.219604,1432.188721 811.205322,1430.555908 793.186829,1428.972046 
	C780.784363,1427.881836 768.364685,1426.969971 755.976990,1425.735229 
	C738.153320,1423.958496 720.326599,1422.167114 702.547607,1420.000366 
	C684.111572,1417.753418 665.656555,1415.497070 647.344727,1412.437744 
	C623.473267,1408.449463 599.734680,1403.666748 575.938904,1399.225830 
M1248.322388,849.045532 
	C1230.870239,852.535828 1213.526123,856.771973 1195.937622,859.321655 
	C1175.395630,862.299683 1154.930054,861.282532 1136.056030,851.135193 
	C1117.348267,841.077332 1101.971191,827.401489 1094.948364,806.816040 
	C1091.607178,797.022217 1089.911621,786.406921 1089.178833,776.042969 
	C1088.017578,759.619568 1088.281860,743.094910 1087.959717,726.612793 
	C1087.791748,718.022888 1085.497925,710.327087 1079.708740,703.640259 
	C1070.786255,693.334106 1046.036743,688.562561 1032.097900,702.566650 
	C1024.812378,709.886414 1017.666992,717.345825 1010.387817,724.672119 
	C974.598816,760.692932 937.040283,794.571960 892.595398,819.831543 
	C870.409607,832.440552 847.706055,844.034668 822.176758,848.537598 
	C812.326965,850.274963 802.402344,852.096497 792.498657,849.242920 
	C784.419373,846.914917 781.382751,841.380798 783.149780,833.294128 
	C785.654541,821.831299 780.981812,810.901672 771.051147,804.995178 
	C761.466553,799.294556 749.138184,800.749451 740.419373,808.454590 
	C730.774292,816.978088 727.310486,827.892883 728.177063,840.336060 
	C730.673279,876.177856 758.546692,904.290405 794.239746,908.126465 
	C816.657349,910.535828 838.072388,906.486328 859.081421,899.705322 
	C886.973389,890.702698 912.666504,876.933289 937.500610,861.546143 
	C967.221985,843.130981 993.726807,820.569458 1019.728821,797.375916 
	C1023.263367,794.223145 1026.769531,791.038513 1030.764404,787.440125 
	C1031.348145,790.774719 1031.888062,793.190063 1032.181641,795.635010 
	C1037.969360,843.824890 1064.422485,877.923889 1105.481689,901.440063 
	C1137.354248,919.694763 1172.144043,922.288208 1207.770630,917.408386 
	C1245.369751,912.258362 1281.737427,902.116577 1317.014404,888.303101 
	C1325.230591,885.085876 1333.234253,880.286682 1339.991333,874.613892 
	C1351.716553,864.770081 1352.783081,847.704529 1343.714355,835.789673 
	C1334.526733,823.718933 1318.483154,820.683777 1305.217041,828.421082 
	C1301.633545,830.511169 1298.084106,832.882324 1294.205444,834.204346 
	C1279.248779,839.301941 1264.165161,844.026917 1248.322388,849.045532 
M701.975647,563.510925 
	C679.136963,582.134277 656.752991,601.352539 633.351685,619.239807 
	C599.359314,645.222595 564.598450,670.198730 530.263733,695.736389 
	C526.022644,698.890808 521.982483,702.510071 518.546570,706.512573 
	C510.902527,715.417358 510.003387,727.611145 515.653076,737.808777 
	C520.994812,747.450500 532.007812,752.401428 543.670654,751.159363 
	C555.525696,749.896729 564.993652,743.669250 574.118835,737.016602 
	C624.445862,700.325989 674.581970,663.375427 722.430054,623.443604 
	C739.328247,609.341125 755.873474,594.876526 769.687378,577.592834 
	C792.251343,549.361145 787.573120,517.075806 757.599792,496.952820 
	C749.617981,491.594147 741.136353,486.706970 732.317017,482.926392 
	C714.583557,475.324585 696.580322,468.305786 678.470154,461.639313 
	C647.714783,450.318115 617.013916,438.762909 585.836548,428.713196 
	C571.727661,424.165344 556.627258,421.936523 541.800842,420.584839 
	C527.010254,419.236389 515.153870,430.146362 514.029358,443.576202 
	C512.797241,458.290771 522.069885,469.306976 537.305237,472.340118 
	C547.225220,474.315002 557.225952,476.569946 566.673706,480.087433 
	C585.690369,487.167633 604.305359,495.318634 623.174927,502.804016 
	C650.400696,513.604248 677.735168,524.130676 704.951660,534.953918 
	C710.457092,537.143311 715.643860,540.133911 722.381287,543.444946 
	C715.165100,550.546265 708.827209,556.783203 701.975647,563.510925 
M1462.541260,635.116821 
	C1452.719727,630.993652 1442.848999,626.983398 1433.086304,622.725342 
	C1408.019653,611.792480 1383.259399,600.245605 1360.946655,584.178650 
	C1356.311035,580.840637 1352.111572,576.896790 1347.159546,572.772705 
	C1350.409424,570.258728 1352.679199,568.333374 1355.113647,566.645447 
	C1392.596069,540.655518 1432.722656,519.334167 1473.858643,499.857361 
	C1478.653564,497.587067 1484.237671,496.549805 1489.570312,495.936981 
	C1501.736938,494.538788 1511.748779,485.688843 1513.547119,473.950500 
	C1515.393066,461.901886 1508.465820,450.336792 1496.746582,445.777527 
	C1486.296265,441.711914 1475.764404,442.177979 1465.411743,445.723358 
	C1427.019653,458.871155 1389.830200,474.810181 1355.465820,496.539001 
	C1337.770142,507.728149 1320.776245,520.091736 1303.986328,532.622925 
	C1294.768921,539.502258 1288.354248,549.031433 1285.361938,560.383423 
	C1280.913696,577.257935 1286.819946,591.458435 1297.146362,604.451233 
	C1309.782471,620.350037 1325.813110,632.189209 1342.884766,642.779602 
	C1368.593628,658.727905 1395.975098,671.384216 1423.946899,682.642639 
	C1457.292725,696.064087 1490.924683,708.790222 1524.598755,721.373413 
	C1539.968018,727.116760 1556.926636,716.565308 1559.707764,700.380920 
	C1562.532715,683.942078 1552.867798,668.463806 1535.881714,662.196472 
	C1511.672852,653.264160 1487.468140,644.321533 1462.541260,635.116821 
z"/>
<path fill="#F7E4AA" opacity="1.000000" stroke="none" 
	d="
M575.948608,1399.671631 
	C599.734680,1403.666748 623.473267,1408.449463 647.344727,1412.437744 
	C665.656555,1415.497070 684.111572,1417.753418 702.547607,1420.000366 
	C720.326599,1422.167114 738.153320,1423.958496 755.976990,1425.735229 
	C768.364685,1426.969971 780.784363,1427.881836 793.186829,1428.972046 
	C811.205322,1430.555908 829.219604,1432.188721 847.238708,1433.765747 
	C859.972046,1434.880127 872.702332,1436.045776 885.448364,1436.995117 
	C908.129395,1438.684326 930.818359,1440.271240 953.510376,1441.806030 
	C961.136841,1442.322144 968.779480,1442.668213 976.420532,1442.885010 
	C992.885803,1443.352661 1009.354980,1443.678833 1025.822266,1444.076050 
	C1054.429810,1444.765869 1083.033936,1445.658813 1111.645264,1446.109009 
	C1141.939453,1446.586060 1172.245605,1447.101807 1202.536377,1446.744263 
	C1226.794312,1446.458130 1251.054077,1445.184570 1275.281738,1443.803711 
	C1297.323364,1442.547363 1319.344482,1440.795654 1341.334961,1438.819580 
	C1362.322510,1436.933960 1383.258667,1434.477051 1404.624512,1432.332520 
	C1401.432129,1444.100342 1398.452271,1456.042603 1394.106445,1467.465332 
	C1384.528442,1492.639648 1367.377563,1512.691162 1349.467896,1532.325073 
	C1333.930054,1549.358643 1319.070068,1567.044800 1304.533691,1584.948730 
	C1287.678711,1605.708496 1268.476196,1623.405029 1244.785156,1636.177124 
	C1227.377075,1645.562378 1210.787964,1656.553467 1193.036987,1665.190918 
	C1175.606689,1673.672607 1157.220581,1680.213135 1139.162109,1687.374634 
	C1117.453491,1695.983765 1094.600098,1700.498291 1071.775146,1704.589844 
	C1056.984009,1707.241211 1041.809326,1708.000122 1026.764526,1708.924316 
	C1009.196533,1710.003418 991.551636,1711.297363 973.998108,1710.723389 
	C956.999329,1710.167725 939.762024,1708.807983 923.182129,1705.236206 
	C889.470642,1697.973999 855.914368,1689.749268 822.740051,1680.347656 
	C808.363708,1676.273315 795.039551,1668.416138 781.333069,1662.070679 
	C770.485291,1657.048584 759.884583,1651.487671 748.994995,1646.562012 
	C728.898071,1637.471924 711.854858,1623.992920 695.354431,1609.738525 
	C683.291321,1599.317749 670.929565,1589.154175 659.689026,1577.889893 
	C642.009338,1560.172729 627.120728,1540.168457 615.910095,1517.681396 
	C606.191101,1498.186401 596.577881,1478.624878 587.541626,1458.808228 
	C581.666992,1445.925049 578.203003,1432.190430 576.988953,1418.005371 
	C576.479858,1412.056885 576.292114,1406.080933 575.948608,1399.671631 
z"/>
<path fill="#F7E4AB" opacity="1.000000" stroke="none" 
	d="
M1704.440063,1631.639404 
	C1680.079346,1620.007690 1656.009521,1608.641846 1632.080933,1596.985962 
	C1623.114868,1592.618408 1614.696167,1587.098145 1605.639893,1582.951050 
	C1590.990356,1576.242920 1576.151001,1569.902710 1561.156006,1564.006836 
	C1536.824341,1554.440063 1513.055908,1543.652466 1490.977295,1529.691772 
	C1478.304932,1521.678467 1466.720337,1511.559082 1461.603516,1496.772705 
	C1457.183228,1483.999268 1460.012085,1471.820068 1468.461548,1461.141846 
	C1471.331665,1457.514771 1473.884033,1453.441528 1477.387939,1450.548584 
	C1486.293091,1443.196777 1496.359009,1443.070312 1506.960571,1446.810669 
	C1526.875977,1453.836792 1547.049927,1460.156372 1566.823853,1467.551880 
	C1601.198853,1480.408203 1635.979614,1492.458374 1669.421265,1507.453369 
	C1703.034668,1522.525391 1735.202271,1540.816284 1768.044556,1557.616333 
	C1780.477539,1563.976440 1793.025146,1570.112305 1805.520996,1576.349487 
	C1821.867188,1584.508911 1838.416260,1592.291992 1854.488403,1600.959595 
	C1864.984009,1606.619873 1874.831299,1613.801880 1876.310181,1627.005493 
	C1876.973267,1632.926392 1875.771484,1639.056274 1875.403687,1645.300049 
	C1877.917603,1647.995239 1881.563354,1651.022827 1884.114624,1654.791260 
	C1895.520386,1671.638306 1887.532104,1694.008789 1868.171021,1699.329712 
	C1858.795654,1701.906372 1849.760254,1699.245239 1840.943237,1695.957397 
	C1809.663330,1684.293457 1780.637451,1668.045044 1751.290161,1652.379639 
	C1738.855591,1645.742188 1725.539185,1640.754761 1712.612549,1635.042114 
	C1710.029541,1633.900635 1707.396973,1632.871094 1704.440063,1631.639404 
z"/>
<path fill="#F7E4AB" opacity="1.000000" stroke="none" 
	d="
M191.762772,1674.755615 
	C183.529449,1680.385498 175.881302,1686.353516 167.499420,1690.997070 
	C158.059372,1696.226807 147.610855,1695.504639 138.088516,1691.273804 
	C130.609344,1687.950684 123.534523,1683.319580 117.015823,1678.311890 
	C101.186371,1666.151733 102.409058,1644.550293 117.158806,1631.467651 
	C127.345833,1622.431763 137.531006,1613.387817 147.921280,1604.588745 
	C159.445129,1594.829590 171.221848,1585.369507 182.850708,1575.733521 
	C194.606796,1565.992188 206.172668,1556.015381 218.085907,1546.471313 
	C230.645782,1536.409302 243.262970,1526.384155 256.303467,1516.963501 
	C289.956299,1492.652710 323.665833,1468.410400 357.742371,1444.700439 
	C373.531982,1433.714233 390.314178,1424.163574 406.483276,1413.709839 
	C416.518829,1407.221680 426.111206,1400.047363 436.156677,1393.575439 
	C444.843750,1387.978638 453.887939,1382.934082 464.745697,1383.031738 
	C465.245544,1383.036255 465.829041,1382.874512 466.232880,1383.074463 
	C473.735443,1386.788208 481.302887,1384.967896 489.144562,1384.195801 
	C505.645782,1382.570679 518.654724,1394.991211 519.635437,1411.656128 
	C520.289307,1422.769287 515.345886,1432.720215 507.565582,1440.821045 
	C491.479248,1457.570068 473.054199,1471.326050 453.577515,1483.950073 
	C437.020355,1494.681885 421.316254,1506.731201 405.250732,1518.219849 
	C392.019104,1527.682007 378.719635,1537.052856 365.613373,1546.686035 
	C346.222656,1560.938232 327.033020,1575.464233 307.649170,1589.726074 
	C294.279175,1599.563232 280.638672,1609.032959 267.274475,1618.877930 
	C246.832336,1633.936646 226.534485,1649.191284 206.151413,1664.330566 
	C201.492447,1667.790894 196.735748,1671.119629 191.762772,1674.755615 
z"/>
<path fill="#F7E4AB" opacity="1.000000" stroke="none" 
	d="
M1382.982300,1714.292480 
	C1384.193115,1697.488159 1400.536987,1682.276367 1420.833374,1688.632935 
	C1432.509277,1692.289429 1444.014771,1696.864990 1455.012085,1702.226562 
	C1472.353027,1710.680664 1489.076782,1720.392212 1506.302612,1729.094849 
	C1517.860107,1734.933716 1529.736816,1740.174927 1541.642944,1745.282349 
	C1563.142334,1754.505249 1583.167114,1766.220825 1602.233154,1779.720703 
	C1609.414673,1784.805542 1617.153687,1789.095947 1624.454346,1794.021606 
	C1632.151733,1799.214966 1638.022583,1805.523926 1638.308350,1815.792725 
	C1638.381836,1818.432739 1641.284424,1821.116943 1643.170288,1823.562622 
	C1651.568115,1834.453613 1651.805542,1848.454590 1643.656372,1859.567261 
	C1636.224243,1869.701782 1621.472778,1873.647217 1609.138916,1868.568604 
	C1589.168091,1860.345337 1568.896606,1852.730835 1549.438477,1843.423828 
	C1534.339233,1836.201660 1520.286987,1826.789917 1505.770630,1818.349487 
	C1489.534180,1808.909058 1473.026855,1799.899048 1457.138184,1789.905762 
	C1440.557251,1779.477295 1424.369141,1768.386719 1408.405029,1757.029419 
	C1399.136963,1750.435669 1389.094604,1743.944458 1385.346924,1732.349243 
	C1383.555420,1726.806885 1383.704712,1720.637207 1382.982300,1714.292480 
z"/>
<path fill="#F7E4AB" opacity="1.000000" stroke="none" 
	d="
M562.088501,1857.031738 
	C570.540833,1832.593140 580.079529,1809.132935 593.637451,1787.375732 
	C605.406921,1768.488525 615.966736,1748.847168 627.750427,1729.969604 
	C632.601074,1722.198730 638.579041,1714.830811 645.260620,1708.579712 
	C653.718567,1700.666382 667.922180,1700.316162 677.337524,1706.222900 
	C688.261475,1713.076050 694.012329,1724.784912 691.100342,1736.800049 
	C686.845093,1754.357788 682.577820,1771.983032 676.884644,1789.103638 
	C669.822998,1810.339600 662.196960,1831.489258 653.096313,1851.910278 
	C646.922363,1865.763916 638.155518,1878.535400 629.857849,1891.343384 
	C624.234192,1900.024048 618.971008,1908.705322 615.594299,1918.549316 
	C613.065430,1925.921753 610.249756,1933.264160 606.776367,1940.228149 
	C601.418335,1950.971191 592.899902,1957.124268 580.268372,1957.164673 
	C567.643066,1957.204956 559.700500,1950.977783 553.580994,1940.469482 
	C548.046997,1930.966553 544.038086,1921.333984 546.249634,1910.271729 
	C548.132690,1900.852417 550.445435,1891.486572 553.184265,1882.280396 
	C555.688232,1873.862915 559.017883,1865.691162 562.088501,1857.031738 
z"/>
<path fill="#F7E4AB" opacity="1.000000" stroke="none" 
	d="
M990.987549,1963.986328 
	C992.613892,1942.181519 994.622070,1920.892090 995.744263,1899.556274 
	C996.695374,1881.470947 996.578064,1863.330566 997.024963,1845.216919 
	C997.196655,1838.258057 997.000916,1831.208862 998.063049,1824.370239 
	C1000.167358,1810.821533 1013.267090,1799.838867 1028.794189,1800.924194 
	C1039.367310,1801.663208 1053.485474,1810.881714 1055.076416,1825.475830 
	C1055.398682,1828.432617 1055.928223,1831.393921 1055.932739,1834.353760 
	C1055.977417,1863.826904 1056.045288,1893.300781 1055.871826,1922.773071 
	C1055.755371,1942.557983 1055.737915,1962.364990 1054.737793,1982.114502 
	C1054.223267,1992.273804 1052.756714,2002.667847 1049.776123,2012.357666 
	C1044.362183,2029.958252 1027.355713,2037.972168 1010.576721,2031.999756 
	C999.596375,2028.091431 994.172913,2019.590942 991.994690,2008.622925 
	C989.713684,1997.137573 989.278381,1985.599976 990.850525,1973.964600 
	C991.270752,1970.854248 990.960327,1967.645264 990.987549,1963.986328 
z"/>
<path fill="#242525" opacity="1.000000" stroke="none" 
	d="
M1248.725586,848.968140 
	C1264.165161,844.026917 1279.248779,839.301941 1294.205444,834.204346 
	C1298.084106,832.882324 1301.633545,830.511169 1305.217041,828.421082 
	C1318.483154,820.683777 1334.526733,823.718933 1343.714355,835.789673 
	C1352.783081,847.704529 1351.716553,864.770081 1339.991333,874.613892 
	C1333.234253,880.286682 1325.230591,885.085876 1317.014404,888.303101 
	C1281.737427,902.116577 1245.369751,912.258362 1207.770630,917.408386 
	C1172.144043,922.288208 1137.354248,919.694763 1105.481689,901.440063 
	C1064.422485,877.923889 1037.969360,843.824890 1032.181641,795.635010 
	C1031.888062,793.190063 1031.348145,790.774719 1030.764404,787.440125 
	C1026.769531,791.038513 1023.263367,794.223145 1019.728821,797.375916 
	C993.726807,820.569458 967.221985,843.130981 937.500610,861.546143 
	C912.666504,876.933289 886.973389,890.702698 859.081421,899.705322 
	C838.072388,906.486328 816.657349,910.535828 794.239746,908.126465 
	C758.546692,904.290405 730.673279,876.177856 728.177063,840.336060 
	C727.310486,827.892883 730.774292,816.978088 740.419373,808.454590 
	C749.138184,800.749451 761.466553,799.294556 771.051147,804.995178 
	C780.981812,810.901672 785.654541,821.831299 783.149780,833.294128 
	C781.382751,841.380798 784.419373,846.914917 792.498657,849.242920 
	C802.402344,852.096497 812.326965,850.274963 822.176758,848.537598 
	C847.706055,844.034668 870.409607,832.440552 892.595398,819.831543 
	C937.040283,794.571960 974.598816,760.692932 1010.387817,724.672119 
	C1017.666992,717.345825 1024.812378,709.886414 1032.097900,702.566650 
	C1046.036743,688.562561 1070.786255,693.334106 1079.708740,703.640259 
	C1085.497925,710.327087 1087.791748,718.022888 1087.959717,726.612793 
	C1088.281860,743.094910 1088.017578,759.619568 1089.178833,776.042969 
	C1089.911621,786.406921 1091.607178,797.022217 1094.948364,806.816040 
	C1101.971191,827.401489 1117.348267,841.077332 1136.056030,851.135193 
	C1154.930054,861.282532 1175.395630,862.299683 1195.937622,859.321655 
	C1213.526123,856.771973 1230.870239,852.535828 1248.725586,848.968140 
z"/>
<path fill="#242525" opacity="1.000000" stroke="none" 
	d="
M702.232483,563.265564 
	C708.827209,556.783203 715.165100,550.546265 722.381287,543.444946 
	C715.643860,540.133911 710.457092,537.143311 704.951660,534.953918 
	C677.735168,524.130676 650.400696,513.604248 623.174927,502.804016 
	C604.305359,495.318634 585.690369,487.167633 566.673706,480.087433 
	C557.225952,476.569946 547.225220,474.315002 537.305237,472.340118 
	C522.069885,469.306976 512.797241,458.290771 514.029358,443.576202 
	C515.153870,430.146362 527.010254,419.236389 541.800842,420.584839 
	C556.627258,421.936523 571.727661,424.165344 585.836548,428.713196 
	C617.013916,438.762909 647.714783,450.318115 678.470154,461.639313 
	C696.580322,468.305786 714.583557,475.324585 732.317017,482.926392 
	C741.136353,486.706970 749.617981,491.594147 757.599792,496.952820 
	C787.573120,517.075806 792.251343,549.361145 769.687378,577.592834 
	C755.873474,594.876526 739.328247,609.341125 722.430054,623.443604 
	C674.581970,663.375427 624.445862,700.325989 574.118835,737.016602 
	C564.993652,743.669250 555.525696,749.896729 543.670654,751.159363 
	C532.007812,752.401428 520.994812,747.450500 515.653076,737.808777 
	C510.003387,727.611145 510.902527,715.417358 518.546570,706.512573 
	C521.982483,702.510071 526.022644,698.890808 530.263733,695.736389 
	C564.598450,670.198730 599.359314,645.222595 633.351685,619.239807 
	C656.752991,601.352539 679.136963,582.134277 702.232483,563.265564 
z"/>
<path fill="#242525" opacity="1.000000" stroke="none" 
	d="
M1462.901367,635.250122 
	C1487.468140,644.321533 1511.672852,653.264160 1535.881714,662.196472 
	C1552.867798,668.463806 1562.532715,683.942078 1559.707764,700.380920 
	C1556.926636,716.565308 1539.968018,727.116760 1524.598755,721.373413 
	C1490.924683,708.790222 1457.292725,696.064087 1423.946899,682.642639 
	C1395.975098,671.384216 1368.593628,658.727905 1342.884766,642.779602 
	C1325.813110,632.189209 1309.782471,620.350037 1297.146362,604.451233 
	C1286.819946,591.458435 1280.913696,577.257935 1285.361938,560.383423 
	C1288.354248,549.031433 1294.768921,539.502258 1303.986328,532.622925 
	C1320.776245,520.091736 1337.770142,507.728149 1355.465820,496.539001 
	C1389.830200,474.810181 1427.019653,458.871155 1465.411743,445.723358 
	C1475.764404,442.177979 1486.296265,441.711914 1496.746582,445.777527 
	C1508.465820,450.336792 1515.393066,461.901886 1513.547119,473.950500 
	C1511.748779,485.688843 1501.736938,494.538788 1489.570312,495.936981 
	C1484.237671,496.549805 1478.653564,497.587067 1473.858643,499.857361 
	C1432.722656,519.334167 1392.596069,540.655518 1355.113647,566.645447 
	C1352.679199,568.333374 1350.409424,570.258728 1347.159546,572.772705 
	C1352.111572,576.896790 1356.311035,580.840637 1360.946655,584.178650 
	C1383.259399,600.245605 1408.019653,611.792480 1433.086304,622.725342 
	C1442.848999,626.983398 1452.719727,630.993652 1462.901367,635.250122 
z"/>
</svg>